<!-- <svg width="390" height="90" viewBox="0 0 390 90" fill="none" xmlns="http://www.w3.org/2000/svg">
<path d="M37.2403 51.0689V59.9921H23.0806V89.1146H14.1691V59.9827H0V51.0595L37.2403 51.0689ZM73.7174 65.6278H54.3094V51.0689H45.398V89.1099H54.3094V74.551H73.7174V89.1099H82.6289V51.0689H73.7174V65.6278ZM145.084 51.0689V89.1099H136.161V74.551H116.765V89.1099H107.842V51.0689H145.084ZM136.161 59.9921H116.765V65.6443H136.173L136.161 59.9921ZM153.228 51.0689V89.1099H190.473V65.6278H167.46V74.551H181.55V80.2055H162.153V59.9827H190.473V51.0595L153.228 51.0689ZM226.936 80.2032H207.528V51.0689H198.605V89.1099H235.838V51.0689H226.915L226.936 80.2032ZM261.072 51.0689V89.1099H269.995V59.9827H289.403V89.1146H298.326V51.0736L261.072 51.0689ZM334.78 65.6278H315.372V51.0689H306.46V89.1099H315.372V74.551H334.78V89.1099H343.703V51.0689H334.78V65.6278ZM389.08 51.0689V89.1099H351.861V51.0689H389.08ZM380.157 59.9921H360.749V80.2126H380.176L380.157 59.9921ZM244.017 89.1146H252.928V51.0736H244.017V89.1146ZM90.7842 89.1146H99.6957V51.0736H90.7842V89.1146Z" fill="white"/>
<path d="M194.549 6.76755V31.1396H169.715L167.601 18.4217L180.153 22.8598L194.549 6.76755ZM179.371 19.7626L164.258 14.418L167.463 33.7978H194.549V35.6576H165.885L161.909 11.6143L178.816 17.5905L194.549 0V2.78028L179.371 19.7626Z" fill="#6FBB0D"/>
<path d="M208.939 22.8598L221.488 18.4217L219.375 31.1396H194.552V6.76755L208.939 22.8598ZM209.731 19.7626L224.844 14.418L221.638 33.7978H194.552V35.6576H223.219L227.192 11.6143L210.285 17.5905L194.552 0V2.78028L209.731 19.7626Z" fill="#BFED0A"/>
</svg> -->

<svg width="243" height="64" viewBox="0 0 243 64" fill="none" xmlns="http://www.w3.org/2000/svg">
<g clip-path="url(#clip0_1639_292)">
<path d="M32.657 1.92413e-05C50.3992 0.0191867 64.8429 14.4043 64.7275 32.0959C64.6073 50.6978 49.1875 64.1006 32.4359 64C15.6265 63.8994 0.504809 50.3001 0.500001 31.8754C0.495193 14.2845 14.9437 -0.0191482 32.657 1.92413e-05ZM61.3474 31.9521C61.2945 16.1438 48.5529 3.33994 32.5801 3.35432C16.6795 3.36869 3.84649 16.2156 3.87534 32.0144C3.90419 47.8323 16.7901 60.6505 32.6426 60.6218C48.5144 60.5978 61.3618 47.7556 61.3426 31.9473L61.3474 31.9521Z" fill="white"/>
<path d="M218.07 19.5987C218.474 19.5077 218.81 19.3783 219.156 19.3687C220.123 19.3399 221.094 19.3351 222.065 19.3687C223.282 19.4118 223.522 19.5843 223.71 20.7775C224.224 24.0455 224.686 27.3184 225.171 30.5912C225.195 30.7685 225.22 30.9458 225.316 31.1327C225.561 27.6634 226.609 24.3714 227.378 21.0171C227.729 19.4741 227.859 19.3831 229.403 19.3543C230.143 19.3399 230.879 19.3351 231.619 19.3543C232.99 19.3927 233.206 19.5508 233.499 20.8685C234.283 24.4001 235.379 27.8742 235.658 31.5304C235.865 29.8054 236.043 28.0755 236.283 26.3552C236.543 24.4912 236.85 22.6319 237.163 20.7727C237.36 19.6131 237.601 19.3783 238.812 19.3735C239.995 19.3639 241.197 19.2058 242.5 19.5604C242.414 20.1306 242.38 20.629 242.26 21.1033C240.981 26.2306 239.692 31.3531 238.394 36.4804C237.985 38.1048 237.841 38.2055 236.115 38.2198C235.374 38.2246 234.639 38.2438 233.898 38.2055C232.754 38.148 232.489 37.9755 232.254 36.9165C231.537 33.6436 230.499 30.4283 230.403 27.0405C230.403 26.9686 230.345 26.8967 230.383 26.9877C229.72 30.0737 229.042 33.3034 228.33 36.5235C227.984 38.0713 227.797 38.1959 226.172 38.2198C225.479 38.2294 224.787 38.239 224.094 38.2198C222.734 38.1767 222.517 38.009 222.195 36.7104C221.334 33.2794 220.488 29.8437 219.637 26.4079C219.161 24.4912 218.685 22.5744 218.219 20.6529C218.147 20.351 218.127 20.0396 218.065 19.6083L218.07 19.5987Z" fill="white"/>
<path d="M84.1285 26.7146C83.8448 29.9635 82.8832 33.0399 82.2149 36.1689C82.1379 36.5283 82.0418 36.8829 81.9408 37.2375C81.7821 37.7886 81.4071 38.1001 80.8349 38.1096C79.6809 38.1288 78.527 38.1192 77.373 38.1144C76.5653 38.1144 76.2912 37.5825 76.1229 36.8925C75.4113 33.9886 74.6708 31.0896 73.9448 28.1905C73.3438 25.7802 72.7476 23.3699 72.161 20.9548C72.06 20.5283 72.0215 20.0875 71.9302 19.5268C73.5986 19.3112 75.1084 19.3352 76.6133 19.4789C77.2192 19.5364 77.3874 20.0971 77.4596 20.6098C77.9548 24.0647 78.4308 27.5244 78.9164 30.9841C78.9309 31.0752 78.9597 31.1614 79.0415 31.4825C79.1665 31.0129 79.2771 30.7541 79.2963 30.4858C79.5559 27.1123 80.5945 23.9018 81.335 20.6337C81.5754 19.57 81.7725 19.4406 82.8447 19.4022C83.7679 19.3687 84.6911 19.3735 85.6142 19.4022C86.749 19.4358 86.9605 19.5843 87.2154 20.7104C87.9895 24.1126 89.0665 27.4621 89.2252 30.9841C89.2348 31.1614 89.2925 31.334 89.5329 31.5496C89.5858 31.195 89.6387 30.8404 89.6868 30.481C90.1531 27.1602 90.6051 23.8347 91.1052 20.5139C91.158 20.1594 91.4658 19.6083 91.735 19.5604C93.2159 19.2776 94.7161 19.3208 96.3653 19.5268C96.2114 20.26 96.1201 20.7919 95.9903 21.3142C94.7257 26.3552 93.4564 31.3962 92.187 36.4325C91.7831 38.0378 91.6869 38.1144 90.0377 38.124C89.254 38.1288 88.4655 38.1432 87.6817 38.1144C86.547 38.0761 86.3499 37.9323 86.0999 36.7919C85.4027 33.6532 84.4362 30.5625 84.2776 27.3232C84.2679 27.1171 84.1814 26.9111 84.1285 26.705V26.7146Z" fill="white"/>
<path d="M128.243 31.2381C129.152 32.9536 130.037 34.6164 130.917 36.2839C131.046 36.5283 131.191 36.7679 131.282 37.0267C131.527 37.7023 131.369 38.0665 130.686 38.0952C129.397 38.1432 128.104 38.1144 126.815 38.0425C126.051 37.9994 125.594 37.4675 125.281 36.8014C124.738 35.6322 124.214 34.4582 123.632 33.3034C122.998 32.0479 122.579 31.8563 120.964 32.024C120.964 33.1453 120.964 34.2809 120.964 35.4214C120.964 35.8335 120.978 36.2504 120.954 36.6625C120.882 37.9275 120.719 38.0952 119.483 38.1288C118.79 38.148 118.098 38.1432 117.406 38.1288C115.872 38.1096 115.742 37.985 115.737 36.4756C115.732 31.7844 115.737 27.0884 115.737 22.3971C115.737 21.7982 115.718 21.1992 115.747 20.605C115.795 19.661 115.973 19.4214 116.886 19.4118C119.704 19.3878 122.522 19.3256 125.334 19.4645C127.902 19.5891 129.801 20.8542 130.657 23.3795C131.575 26.1012 130.84 29.0051 128.849 30.6966C128.642 30.8691 128.45 31.056 128.243 31.2381ZM120.969 27.4765C122.084 27.4765 123.046 27.5244 124.002 27.4621C125.012 27.3998 125.589 26.7194 125.594 25.7275C125.599 24.7883 125.108 24.1222 124.132 24.0264C123.137 23.9305 122.127 24.0072 120.969 24.0072V27.4765Z" fill="white"/>
<path d="M217.233 28.7703C217.233 29.6424 217.257 30.5193 217.233 31.3914C217.098 35.3591 215.084 37.7119 211.146 38.4067C209.218 38.7469 207.275 38.6703 205.41 37.9898C202.943 37.0938 201.323 35.3591 201.097 32.7523C200.876 30.2031 200.866 27.6059 201.058 25.0518C201.279 22.0761 203.092 20.2025 205.948 19.3783C208.179 18.7362 210.425 18.7553 212.627 19.4981C215.406 20.4373 216.92 22.4259 217.175 25.3202C217.276 26.4606 217.19 27.6155 217.19 28.7655C217.204 28.7655 217.218 28.7655 217.233 28.7655V28.7703ZM211.978 28.7368H211.987C211.987 27.9126 211.987 27.0836 211.987 26.2594C211.987 26.1683 211.982 26.0773 211.978 25.9862C211.867 24.5774 211.136 23.7916 209.742 23.643C209.285 23.5951 208.819 23.5951 208.362 23.6526C207.112 23.8059 206.265 24.5247 206.203 25.7754C206.102 27.788 206.102 29.8149 206.213 31.8275C206.275 33.0351 207.054 33.682 208.29 33.8593C208.742 33.9263 209.208 33.9359 209.665 33.888C211.179 33.7299 211.901 32.9871 211.973 31.4921C212.016 30.5768 211.982 29.6568 211.982 28.7368H211.978Z" fill="white"/>
<path d="M193.385 31.0321H188.375C188.341 31.425 188.283 31.8131 188.278 32.2061C188.269 33.6772 188.288 35.1531 188.269 36.6242C188.25 37.9419 188.024 38.1719 186.754 38.215C185.922 38.2438 185.091 38.2486 184.264 38.2007C183.24 38.1384 183.066 37.9467 183.018 36.9452C182.989 36.3941 183.009 35.8431 183.009 35.2872C183.009 30.687 183.009 26.0869 183.009 21.4867C183.009 21.0746 183.018 20.6577 183.033 20.2456C183.047 19.6849 183.379 19.3831 183.903 19.3687C185.057 19.3399 186.211 19.3256 187.36 19.3735C188.158 19.407 188.259 20.0491 188.264 20.6769C188.274 22.0569 188.269 23.437 188.269 24.817C188.269 25.2675 188.269 25.7179 188.269 26.2546H193.284C193.317 25.8281 193.375 25.4352 193.38 25.0374C193.394 23.5663 193.361 22.0905 193.399 20.6194C193.428 19.6274 193.673 19.3831 194.635 19.3351C195.558 19.292 196.481 19.292 197.404 19.3351C198.419 19.3783 198.587 19.5795 198.645 20.5762C198.655 20.7583 198.645 20.9452 198.645 21.1273C198.645 26.2354 198.645 31.3435 198.645 36.4469C198.645 38.0569 198.51 38.1863 196.933 38.215C196.193 38.2294 195.452 38.2438 194.717 38.2007C193.688 38.1384 193.428 37.8844 193.399 36.835C193.361 35.4549 193.39 34.0749 193.385 32.6948C193.385 32.1965 193.385 31.6933 193.385 31.0273V31.0321Z" fill="white"/>
<path d="M147.774 28.6888C147.774 26.1587 147.764 23.6286 147.774 21.0985C147.784 19.5555 147.923 19.4118 149.414 19.4022C151.447 19.3878 153.481 19.3207 155.506 19.4309C156.78 19.5028 158.097 19.6849 159.285 20.121C161.761 21.0266 163.17 22.953 163.372 25.5406C163.54 27.6873 163.535 29.8676 163.372 32.0192C163.126 35.2345 160.718 37.5394 157.27 37.9802C155.905 38.1527 154.505 38.1096 153.125 38.1336C151.88 38.1575 150.63 38.1479 149.385 38.1336C147.928 38.1144 147.784 37.9802 147.774 36.5618C147.76 33.9407 147.774 31.3147 147.774 28.6936V28.6888ZM153.053 33.5573C153.731 33.5573 154.323 33.5621 154.909 33.5573C155.275 33.5525 155.65 33.5573 156.01 33.495C157.323 33.2698 158.102 32.5894 158.164 31.3627C158.251 29.6232 158.237 27.8742 158.164 26.1348C158.121 25.0518 157.429 24.3905 156.371 24.1366C155.289 23.8778 154.207 23.9353 153.049 24.0263V33.5621L153.053 33.5573Z" fill="white"/>
<path d="M97.1729 28.6169C97.1729 27.6059 97.1296 26.59 97.1825 25.5837C97.3412 22.584 99.0722 20.375 101.947 19.4741C104.265 18.7505 106.597 18.7649 108.886 19.5603C111.367 20.4229 112.997 22.1863 113.223 24.7835C113.449 27.4238 113.458 30.1216 113.223 32.7619C112.992 35.3591 111.357 37.1177 108.871 37.9706C106.53 38.7757 104.15 38.7709 101.798 38.0042C99.0721 37.1177 97.3604 34.9134 97.1922 32.0623C97.1248 30.917 97.1825 29.7622 97.1825 28.6122C97.1825 28.6122 97.1825 28.6122 97.1777 28.6122L97.1729 28.6169ZM108.251 28.8134C108.251 28.0323 108.265 27.2561 108.251 26.475C108.212 24.4768 107.352 23.619 105.39 23.5999C105.116 23.5999 104.837 23.5951 104.563 23.6238C103.222 23.7772 102.423 24.5055 102.375 25.8425C102.303 27.8071 102.313 29.7814 102.375 31.7508C102.414 32.92 103.068 33.6005 104.212 33.8401C104.698 33.9407 105.217 33.9934 105.712 33.9503C107.41 33.8017 108.184 32.9775 108.241 31.2908C108.27 30.4666 108.246 29.6424 108.246 28.8182L108.251 28.8134Z" fill="white"/>
<path d="M172.704 38.5552C171.252 38.6032 169.714 38.3684 168.252 37.7263C166.891 37.1273 165.858 36.1881 165.266 34.808C164.824 33.7682 164.954 33.404 165.968 32.9871C166.738 32.6756 167.531 32.4361 168.305 32.139C168.954 31.8898 169.411 32.0287 169.853 32.6038C170.993 34.0845 173.084 34.5732 174.815 33.8449C175.378 33.6101 175.748 33.2171 175.738 32.6038C175.729 32.0287 175.335 31.6694 174.825 31.5112C174.214 31.3243 173.575 31.2045 172.95 31.0704C171.642 30.7972 170.305 30.6391 169.036 30.251C166.521 29.4795 165.358 27.903 165.17 25.2962C165.002 22.9961 166.141 20.9308 168.334 19.9437C171.377 18.5732 174.508 18.5684 177.609 19.7856C178.854 20.2743 179.739 21.2183 180.349 22.4019C180.835 23.3459 180.734 23.7245 179.811 24.1557C178.979 24.5487 178.118 24.8841 177.272 25.2483C176.695 25.4974 176.19 25.4735 175.854 24.8553C174.988 23.2644 173.522 23.2261 172.002 23.4178C171.06 23.5376 170.584 24.0024 170.574 24.6541C170.565 25.4639 171.147 25.7754 171.796 25.9335C172.599 26.13 173.43 26.2162 174.238 26.3887C175.363 26.6283 176.508 26.82 177.59 27.189C179.724 27.9173 180.854 29.5034 181.075 31.7173C181.306 34.0174 180.527 35.8814 178.527 37.1417C176.791 38.2342 174.859 38.5792 172.7 38.5457L172.704 38.5552Z" fill="white"/>
<path d="M138.586 33.5143C139.115 33.5382 139.562 33.5766 140.014 33.5813C141.581 33.5909 143.154 33.567 144.721 33.5909C145.813 33.6101 146 33.8018 146.043 34.8895C146.072 35.6706 146.053 36.4517 146.019 37.2327C146 37.7694 145.697 38.0761 145.144 38.1048C144.961 38.1144 144.774 38.1288 144.591 38.1288C141.312 38.1288 138.038 38.1432 134.759 38.124C133.566 38.1144 133.345 37.918 133.34 36.7727C133.321 31.4346 133.321 26.0965 133.34 20.7631C133.34 19.6083 133.561 19.4358 134.749 19.4022C135.533 19.3783 136.321 19.3783 137.105 19.4022C138.317 19.4358 138.461 19.5795 138.514 20.7583C138.528 21.0794 138.519 21.4004 138.519 21.7263C138.519 25.1764 138.519 28.6266 138.519 32.0767C138.519 32.5271 138.557 32.9728 138.586 33.5143Z" fill="white"/>
<path d="M102.02 53.9755C101.698 53.549 101.52 53.4196 101.52 53.295C101.505 49.9599 101.505 46.6248 101.505 43.3232C102.251 43.1315 102.352 43.6298 102.539 43.9605C103.506 45.6328 104.458 47.3148 105.414 48.9919C105.64 49.3849 105.881 49.7682 106.198 50.2953C106.737 49.3657 107.198 48.5798 107.655 47.7892C108.112 46.9889 108.525 46.1647 109.021 45.3933C109.497 44.6553 109.674 43.6921 110.651 43.1459C111.098 44.387 110.824 45.5706 110.876 46.7206C110.925 47.8658 110.925 49.0207 110.876 50.1659C110.828 51.316 111.093 52.4996 110.602 53.87C109.977 52.7823 110.3 51.8239 110.247 50.9231C110.189 49.9168 110.232 48.9009 110.232 47.8898V45.0051C110.165 44.9716 110.098 44.9428 110.03 44.9093C108.823 47.0129 107.617 49.1213 106.294 51.431C105.299 50.372 104.861 49.2124 104.241 48.1869C103.597 47.1279 103.015 46.0354 102.279 44.7368C102.207 45.216 102.135 45.4891 102.135 45.767C102.13 47.9713 102.145 50.1803 102.135 52.3846C102.135 52.811 102.078 53.2327 102.02 53.985V53.9755Z" fill="white"/>
<path d="M87.3019 49.0638C88.4463 50.4965 89.081 52.0299 89.7637 53.5394C89.6579 53.6113 89.557 53.6879 89.4512 53.7598C89.2444 53.525 88.9848 53.3237 88.8406 53.0554C88.3742 52.212 87.9366 51.3495 87.5183 50.4822C87.0711 49.5621 86.3403 49.0925 85.3306 49.0686C84.5517 49.0494 83.7727 49.0686 82.8255 49.0686C82.7775 50.6307 82.7294 52.1402 82.6813 53.6448C82.5851 53.664 82.489 53.6783 82.3928 53.6975C82.2774 53.501 82.061 53.3046 82.061 53.1081C82.061 49.8976 82.0947 46.687 82.1235 43.4765C82.1235 43.4382 82.1716 43.3998 82.263 43.2608C83.9266 43.2608 85.6672 43.1746 87.3933 43.2896C88.5376 43.3663 89.2733 44.2384 89.4656 45.3836C89.6724 46.6343 89.5185 47.7796 88.3453 48.5463C88.0424 48.7427 87.6962 48.8721 87.3019 49.0638ZM82.8352 43.8071V48.4696C83.8304 48.4696 84.744 48.4696 85.6527 48.4696C86.0662 48.4696 86.4894 48.4888 86.8981 48.4265C88.2107 48.23 88.8983 47.3579 88.8502 46.0162C88.8021 44.7463 88.0905 43.903 86.8211 43.8263C85.5421 43.7496 84.2488 43.8071 82.8352 43.8071Z" fill="white"/>
<path d="M210.954 43.256C211.362 44.0227 211.516 50.8128 211.189 53.5681C210.641 53.87 210.454 53.4052 210.228 53.0889C208.4 50.487 206.588 47.8802 204.77 45.2782C204.621 45.0674 204.482 44.8565 204.131 44.6936C204.131 46.1839 204.145 47.6741 204.131 49.1644C204.112 50.6499 204.232 52.1449 204.049 53.6065C203.838 53.616 203.789 53.6304 203.746 53.6208C203.708 53.6112 203.65 53.5825 203.65 53.5585C203.597 50.487 203.539 47.4154 203.501 44.3438C203.501 43.994 203.563 43.6442 203.597 43.3231C204.251 43.1362 204.405 43.6154 204.621 43.9221C206.395 46.4474 208.15 48.9823 209.92 51.5124C210.117 51.7951 210.333 52.0635 210.728 52.5858C210.728 49.3082 210.728 46.3468 210.737 43.3806C210.737 43.3423 210.886 43.2992 210.968 43.2608L210.954 43.256Z" fill="white"/>
<path d="M165.661 48.0862C165.295 47.5448 164.906 47.08 164.641 46.5529C164.132 45.5466 164.372 44.3582 165.146 43.6442C165.954 42.8967 167.242 42.7481 168.238 43.2848C169.171 43.788 169.651 44.7559 169.507 45.8245C169.411 46.5672 168.983 47.0895 168.392 47.4825C167.973 47.7604 167.526 47.9904 167.016 48.2827C167.993 49.265 168.935 50.2138 169.863 51.153C170.363 50.8128 170.786 50.5253 171.214 50.233C171.291 50.3097 171.368 50.3911 171.445 50.4678C171.142 50.8655 170.839 51.2585 170.483 51.7233C171.041 52.327 171.613 52.9404 172.325 53.7071C171.089 53.6544 170.772 52.6289 169.921 52.2168C169.57 52.4708 169.204 52.8254 168.771 53.0314C168.036 53.3812 167.281 53.779 166.492 53.9036C165.223 54.1048 164.103 53.3429 163.636 52.1929C163.165 51.0284 163.463 49.7874 164.449 48.9584C164.829 48.6421 165.252 48.3786 165.665 48.0862H165.661ZM166.31 48.5463C165.863 48.7571 165.516 48.8769 165.218 49.0734C164.16 49.773 163.781 50.9901 164.261 52.0587C164.733 53.1129 165.911 53.64 167.166 53.1656C167.988 52.8541 168.709 52.2791 169.262 51.9485C168.219 50.7457 167.271 49.6484 166.314 48.5415L166.31 48.5463ZM166.367 47.8562C166.959 47.5735 167.478 47.3914 167.935 47.1039C168.935 46.4762 169.214 45.4268 168.68 44.4971C168.161 43.5915 166.988 43.2465 166.04 43.7257C165.05 44.224 164.67 45.3884 165.242 46.4331C165.516 46.9362 165.954 47.3483 166.363 47.861L166.367 47.8562Z" fill="white"/>
<path d="M150.909 50.9901C151.02 51.1243 151.145 51.2441 151.241 51.3879C152.428 53.1609 154.318 53.7694 156.285 53.0075C157.261 52.629 157.761 51.8958 157.732 50.8895C157.703 49.9311 157.237 49.3082 156.169 49.0494C155.054 48.7811 153.89 48.6948 152.775 48.4217C151.164 48.024 150.375 46.85 150.741 45.3597C150.875 44.8134 151.198 44.224 151.606 43.8455C153.342 42.2498 156.847 42.7961 158.059 44.8087C158.165 44.9812 158.193 45.2016 158.352 45.6951C157.905 45.4412 157.621 45.3789 157.53 45.2112C156.568 43.5053 154.443 43.3663 153.001 43.8024C151.967 44.1138 151.419 44.8182 151.395 45.7958C151.371 46.8069 151.837 47.4538 152.967 47.7652C153.717 47.9713 154.506 48.0432 155.275 48.1821C155.727 48.2636 156.188 48.3259 156.621 48.4696C158.525 49.1165 159.064 51.5173 157.64 52.9356C155.818 54.747 151.779 54.0857 150.697 51.7856C150.601 51.5795 150.64 51.316 150.616 51.0764C150.717 51.0476 150.813 51.0189 150.914 50.9901H150.909Z" fill="white"/>
<path d="M231.215 50.9853C231.398 51.2249 231.586 51.4549 231.759 51.6993C232.86 53.2758 235.442 53.8125 237.072 52.8014C237.875 52.3031 238.096 51.5508 238.024 50.6643C237.956 49.8113 237.432 49.3273 236.677 49.1021C236.11 48.9296 235.504 48.8721 234.918 48.7571C234.196 48.6133 233.446 48.5463 232.759 48.3067C230.802 47.6166 230.355 45.2495 231.889 43.8646C233.624 42.2929 237.182 42.7817 238.365 44.7751C238.485 44.9715 238.485 45.2399 238.538 45.4747C238.456 45.5226 238.375 45.5753 238.293 45.6232C238.072 45.3884 237.836 45.1584 237.629 44.914C236.485 43.5484 234.249 43.1602 232.73 44.0611C231.975 44.5115 231.663 45.1824 231.711 46.0257C231.759 46.8452 232.206 47.4298 232.985 47.655C233.778 47.885 234.605 47.9952 235.413 48.1581C235.908 48.2587 236.423 48.3019 236.899 48.46C238.836 49.0925 239.404 51.4453 237.995 52.8973C236.168 54.7805 232.062 54.0856 230.985 51.7041C230.903 51.5268 230.927 51.3016 230.903 51.1003C231.004 51.062 231.11 51.0236 231.211 50.9853H231.215Z" fill="white"/>
<path d="M229.311 48.5319C229.249 49.404 229.239 50.2809 229.114 51.1387C228.917 52.5139 228.075 53.3956 226.739 53.7023C225.989 53.8748 225.176 53.9371 224.416 53.8461C222.325 53.5921 221.31 52.4469 221.248 50.3576C221.209 49.0255 221.204 47.6885 221.257 46.3564C221.329 44.5355 222.248 43.4286 224.036 43.0979C224.791 42.959 225.609 42.959 226.368 43.0884C228.066 43.3807 228.96 44.3438 229.162 46.0497C229.258 46.8643 229.176 47.7029 229.176 48.5271C229.22 48.5271 229.263 48.5271 229.306 48.5271L229.311 48.5319ZM228.527 48.46C228.527 48.46 228.523 48.46 228.518 48.46C228.518 47.6837 228.571 46.8979 228.508 46.1264C228.407 44.8997 227.734 44.0371 226.527 43.788C225.739 43.625 224.878 43.6155 224.085 43.7496C222.758 43.9796 221.983 44.8853 221.911 46.227C221.834 47.6885 221.834 49.1596 221.911 50.6212C221.988 52.0779 222.854 52.9787 224.32 53.1896C224.945 53.2806 225.609 53.2758 226.234 53.1752C227.619 52.95 228.426 52.0443 228.522 50.6547C228.575 49.9263 228.532 49.1884 228.532 48.4552L228.527 48.46Z" fill="white"/>
<path d="M91.3505 48.436C91.3505 47.655 91.2976 46.8739 91.3601 46.1024C91.4803 44.6313 92.2448 43.5867 93.7065 43.2225C94.495 43.026 95.3509 42.9446 96.1538 43.026C98.1012 43.2273 99.2263 44.43 99.3321 46.3851C99.4042 47.7556 99.4042 49.1356 99.3321 50.5061C99.2311 52.4229 98.1925 53.5585 96.2789 53.8221C95.4807 53.9323 94.62 53.8796 93.8267 53.7071C92.3506 53.386 91.4755 52.2983 91.3601 50.7745C91.3024 49.9982 91.3505 49.2171 91.3505 48.4408V48.436ZM98.6204 48.4648C98.6204 48.4648 98.6204 48.4648 98.6252 48.4648C98.6252 47.7316 98.6637 46.9937 98.6156 46.2653C98.5195 44.8469 97.7694 43.97 96.3654 43.7065C95.7452 43.5915 95.0768 43.5771 94.4518 43.6681C92.966 43.8934 92.1006 44.7415 92.0044 46.2174C91.9034 47.722 91.9034 49.2459 92.0188 50.7457C92.1294 52.1593 92.9949 52.9787 94.4037 53.1896C95.0287 53.2806 95.6923 53.2806 96.3173 53.18C97.7165 52.9548 98.505 52.0731 98.6108 50.6642C98.6637 49.9359 98.6204 49.1979 98.6204 48.4648Z" fill="white"/>
<path d="M121.031 48.4983C121.031 49.2315 121.074 49.9694 121.021 50.6978C120.911 52.3414 119.983 53.4387 118.353 53.7502C117.603 53.8939 116.79 53.9227 116.035 53.8077C114.131 53.5202 113.126 52.3701 113.04 50.4438C112.982 49.1165 112.982 47.7843 113.04 46.457C113.126 44.4923 114.203 43.2656 116.151 43.0404C116.992 42.9398 117.901 43.0308 118.728 43.2369C120.127 43.5867 120.872 44.6169 121.002 46.0257C121.079 46.8451 121.017 47.6741 121.017 48.4983H121.031ZM120.416 48.4217H120.387C120.387 47.6885 120.454 46.9506 120.372 46.227C120.209 44.7367 119.406 43.8933 117.925 43.6681C117.3 43.5771 116.632 43.5963 116.011 43.7113C114.598 43.9748 113.819 44.8469 113.756 46.2605C113.694 47.722 113.694 49.1931 113.756 50.6594C113.819 52.0587 114.651 52.9356 116.04 53.1848C116.531 53.271 117.05 53.3093 117.545 53.2614C119.353 53.0985 120.286 52.1449 120.401 50.348C120.44 49.7107 120.406 49.0638 120.406 48.4217H120.416Z" fill="white"/>
<path d="M177.508 43.304C179.542 43.026 182.898 43.1171 183.994 43.5627C182.893 43.9605 181.946 43.7448 181.032 43.7832C180.119 43.8215 179.201 43.7927 178.21 43.7927C177.946 45.1824 178.1 46.4953 178.104 47.8706C179.749 48.3642 181.475 47.746 183.278 48.3115C182.34 48.9871 181.465 48.6469 180.657 48.7044C179.845 48.7619 179.027 48.7188 178.143 48.7188V53.1081H183.937L183.994 53.3669C183.85 53.4819 183.701 53.6975 183.557 53.6975C181.581 53.7215 179.604 53.7119 177.652 53.7119C177.316 52.696 177.224 45.4028 177.508 43.3088V43.304Z" fill="white"/>
<path d="M132.388 48.3881C132.388 47.655 132.34 46.917 132.398 46.1887C132.523 44.5834 133.374 43.5004 134.941 43.1746C135.816 42.9925 136.778 42.9637 137.658 43.1267C139.35 43.4333 140.293 44.5738 140.37 46.2941C140.437 47.7125 140.432 49.1356 140.37 50.554C140.288 52.3558 139.326 53.4579 137.557 53.779C136.85 53.9083 136.086 53.9227 135.374 53.8077C133.446 53.5058 132.475 52.3797 132.379 50.4486C132.345 49.7634 132.374 49.0734 132.374 48.3881C132.374 48.3881 132.383 48.3881 132.388 48.3881ZM139.677 48.3498C139.677 48.3498 139.663 48.3498 139.653 48.3498C139.653 47.5735 139.716 46.7876 139.639 46.0209C139.519 44.7894 138.793 43.9652 137.581 43.7592C136.788 43.6202 135.932 43.6346 135.139 43.7736C133.989 43.9748 133.206 44.7559 133.143 45.9299C133.047 47.6166 133.047 49.3129 133.148 50.9997C133.22 52.1785 134.042 52.9068 135.172 53.1416C135.831 53.2806 136.547 53.295 137.22 53.2087C138.721 53.0171 139.524 52.1833 139.668 50.693C139.74 49.9215 139.682 49.1404 139.682 48.3594L139.677 48.3498Z" fill="white"/>
<path d="M130.633 50.8847C130.864 52.1018 130.239 52.7679 129.484 53.2519C128.965 53.5873 128.297 53.7215 127.681 53.87C127.21 53.985 126.753 54.0281 126.849 54.7661C127.032 54.8188 127.248 54.8763 127.455 54.9338C128.066 55.1063 128.407 55.4801 128.33 56.1414C128.258 56.7595 127.893 57.1956 127.292 57.2674C126.734 57.3345 126.152 57.2339 125.58 57.2099C125.58 57.0949 125.585 56.9799 125.59 56.8649C125.849 56.8889 126.109 56.956 126.364 56.932C126.72 56.8985 127.128 56.8841 127.407 56.6972C127.619 56.5535 127.763 56.1605 127.748 55.8826C127.739 55.6909 127.455 55.437 127.234 55.3411C126.955 55.2213 126.623 55.2309 126.224 55.1734C126.296 54.7901 126.359 54.445 126.431 54.0329C126.094 53.9323 125.748 53.8317 125.402 53.7311C123.912 53.2806 123.027 52.2839 122.955 50.7553C122.883 49.198 122.878 47.631 122.96 46.0737C123.041 44.593 123.868 43.6154 125.316 43.1842C126.503 42.8344 127.691 42.8392 128.845 43.2704C129.941 43.6825 130.6 44.4684 130.499 45.8053C130.321 45.6041 130.104 45.4268 129.965 45.2016C128.898 43.4621 126.09 42.9877 124.532 44.2959C123.849 44.8709 123.585 45.652 123.561 46.5001C123.522 47.7844 123.503 49.0734 123.561 50.3576C123.642 52.0827 124.604 53.0554 126.316 53.2375C128.003 53.4148 129.451 53.0889 130.157 51.2968C130.21 51.1626 130.398 51.0812 130.633 50.8847Z" fill="white"/>
<path d="M73.6613 49.6005C73.5411 51.062 73.4401 52.3223 73.3247 53.5777C73.3247 53.6017 73.166 53.6113 73.0795 53.6256C72.7525 52.6816 72.6419 46.2079 72.9112 43.3375C73.1852 43.2896 73.4834 43.189 73.7815 43.1842C75.022 43.1746 76.2721 43.1363 77.5078 43.2225C79.3205 43.3471 80.3446 44.593 80.311 46.481C80.2821 48.2731 79.2291 49.428 77.4549 49.5669C76.8154 49.6197 76.1663 49.5861 75.522 49.5909C74.9306 49.5909 74.3392 49.5909 73.6564 49.5909L73.6613 49.6005ZM73.6084 48.944C75.0124 48.944 76.2961 49.0494 77.5559 48.9152C78.9454 48.7667 79.6955 47.7125 79.6426 46.3037C79.5945 44.9476 78.8204 43.9557 77.5174 43.8455C76.2529 43.74 74.9739 43.8215 73.6084 43.8215V48.944Z" fill="white"/>
<path d="M195.659 43.788V47.8802C197.327 48.321 199.049 47.7796 200.866 48.2683C199.967 49.0207 199.087 48.6325 198.294 48.6948C197.472 48.7619 196.645 48.7092 195.707 48.7092V53.041C197.63 53.0746 199.578 53.1129 201.53 53.1464C201.549 53.2279 201.563 53.3142 201.583 53.3956C201.385 53.501 201.188 53.6927 200.986 53.6927C199.058 53.7167 197.125 53.7071 195.034 53.7071C194.875 50.2186 194.995 46.8068 194.952 43.2129C197.135 43.1315 199.217 43.1746 201.299 43.189C201.318 43.28 201.342 43.3759 201.361 43.4669C201.16 43.5675 200.962 43.7544 200.76 43.7592C199.611 43.788 198.457 43.7784 197.303 43.7784C196.803 43.7784 196.303 43.7784 195.654 43.7784L195.659 43.788Z" fill="white"/>
<path d="M142.576 43.28H148.904C148.101 44.0179 147.149 43.7304 146.264 43.7784C145.308 43.8311 144.351 43.7879 143.298 43.7879V47.9089C144.942 48.3114 146.663 47.7796 148.486 48.2731C147.563 49.0015 146.683 48.6373 145.88 48.6996C145.062 48.7619 144.23 48.714 143.307 48.714V53.0506C145.235 53.0841 147.187 53.1129 149.135 53.1464C149.154 53.2231 149.168 53.3046 149.188 53.3812C149.029 53.4867 148.87 53.6879 148.712 53.6879C146.74 53.7071 144.764 53.7023 142.591 53.7023C142.552 50.2042 142.572 46.7924 142.581 43.2752L142.576 43.28Z" fill="white"/>
<path d="M184.768 43.3471C185.59 43.0884 185.605 43.6586 185.735 43.9845C186.336 45.4699 186.903 46.9746 187.485 48.4696C187.994 49.7922 188.509 51.1147 189.091 52.6194C189.297 52.2121 189.456 51.9581 189.562 51.6898C190.543 49.1692 191.509 46.6439 192.5 44.1234C192.649 43.7497 192.658 43.1842 193.538 43.2801C192.153 46.8212 190.802 50.281 189.355 53.9851C188.975 53.5682 188.711 53.3909 188.61 53.1417C187.326 49.9024 186.061 46.6583 184.773 43.3471H184.768Z" fill="white"/>
<path d="M216.113 43.7017H212.809C212.809 43.5963 212.8 43.4909 212.795 43.3854C213.507 42.9829 214.319 43.2273 215.084 43.189C215.959 43.1459 216.834 43.1794 217.709 43.1794H220.363C219.767 44.0563 219.122 43.7257 218.598 43.7784C218.065 43.8311 217.517 43.7928 216.824 43.7928V47.2093C216.824 48.3115 216.843 49.4136 216.819 50.5157C216.795 51.5699 216.94 52.6481 216.646 53.9611C215.834 52.9883 216.18 52.1402 216.122 51.3735C216.06 50.5493 216.108 49.7203 216.108 48.8913V43.7017H216.113Z" fill="white"/>
<path d="M134.143 42.1013C134.359 40.6829 134.811 40.3474 135.749 40.7068C136.004 40.8027 136.23 40.9704 136.461 41.1189C137.552 41.809 137.634 41.7994 138.432 40.8122C138.49 41.7371 138.081 42.2067 137.307 42.0198C136.961 41.9383 136.638 41.7179 136.331 41.5262C135.158 40.7835 135.09 40.7931 134.138 42.1013H134.143Z" fill="white"/>
<path d="M9.80359 31.9281C9.80359 28.938 9.77474 25.9527 9.81802 22.9626C9.83725 21.8653 9.94303 20.7535 10.1642 19.6802C11.1595 14.8212 14.7127 11.3807 19.6267 10.6763C25.1272 9.89041 30.5076 10.3217 35.4744 13.0626C40.8403 16.0192 46.1534 19.0764 51.4856 22.0953C52.8511 22.8668 54.1974 23.6622 55.5533 24.4481C56.9285 25.2435 58.1113 26.2498 59.0248 27.558C61.126 30.5625 61.0827 34.118 58.9094 37.0698C57.7939 38.584 56.3178 39.6718 54.6782 40.5535C49.4037 43.3903 44.1291 46.2318 38.8497 49.059C36.9409 50.0797 35.0369 51.1195 33.0848 52.0539C30.1662 53.4532 27.0842 54.0713 23.8338 53.8605C22.502 53.7742 21.1557 53.8844 19.8382 53.7311C15.5253 53.2327 12.5202 50.9614 10.8325 46.9554C9.78917 44.4732 9.69781 41.8617 9.67377 39.2357C9.64973 36.7967 9.67377 34.3624 9.67377 31.9234C9.72185 31.9234 9.76993 31.9234 9.81321 31.9234L9.80359 31.9281ZM42.4366 37.4244C42.4366 37.4244 42.4366 37.4244 42.4366 37.4196C43.0809 37.4196 43.73 37.4723 44.3647 37.41C45.5475 37.2902 46.4034 36.3558 46.4515 35.2202C46.5044 34.0318 45.6581 32.9536 44.4176 32.853C43.1386 32.7523 41.8404 32.7523 40.5615 32.8482C39.3065 32.9392 38.4459 33.9839 38.4699 35.1674C38.4939 36.3654 39.3835 37.3142 40.6432 37.4196C41.2346 37.4723 41.8356 37.4292 42.4366 37.4292V37.4244ZM25.6321 37.4244C26.2283 37.4244 26.8293 37.4579 27.4207 37.4196C28.7237 37.3286 29.5844 36.4612 29.6421 35.2441C29.6998 33.9551 28.868 32.9249 27.5313 32.8338C26.3004 32.7476 25.0503 32.7476 23.8146 32.8338C22.5356 32.9249 21.7182 33.9024 21.723 35.1339C21.723 36.4085 22.6174 37.3286 23.9781 37.4244C24.5262 37.4627 25.0791 37.4292 25.6321 37.4292V37.4244ZM17.6409 29.997C18.2852 29.997 18.9343 30.0354 19.5786 29.9874C20.7758 29.9012 21.6557 29.0003 21.7327 27.8551C21.8096 26.7434 21.0018 25.6077 19.8382 25.5023C18.4679 25.3777 17.0687 25.3777 15.6936 25.4879C14.4964 25.5837 13.7319 26.6236 13.7655 27.7976C13.7992 29.0243 14.6791 29.9108 15.9773 29.997C16.5302 30.0306 17.0832 30.0018 17.6409 30.0018V29.997ZM33.9983 29.9922C34.6426 29.9922 35.2917 30.0306 35.936 29.9827C37.1332 29.8916 38.0035 28.9812 38.066 27.8263C38.1285 26.7002 37.3256 25.5933 36.1524 25.4927C34.782 25.3729 33.3829 25.3729 32.0125 25.4927C30.8153 25.5933 30.0652 26.6379 30.1085 27.8215C30.1518 28.9955 30.9884 29.8868 32.2 29.9874C32.7963 30.0354 33.3973 29.997 33.9983 29.997V29.9922ZM33.1521 30.9698C33.1136 31.4298 33.0655 31.7461 33.0655 32.0623C33.0607 35.1818 33.0559 38.3061 33.0655 41.4256C33.0655 42.5948 33.3732 43.074 34.08 43.05C34.734 43.0261 35.1475 42.5852 35.1282 41.4256C35.0801 38.2582 35.1138 35.0908 35.1042 31.9234C35.1042 31.6215 35.0321 31.3196 34.984 30.9698H33.1473H33.1521ZM16.7802 31.0992C16.7562 31.6598 16.7177 32.1102 16.7177 32.5607C16.7129 34.4007 16.7177 36.2408 16.7177 38.0809C16.7177 39.183 16.7081 40.2899 16.7177 41.3921C16.7322 42.5804 17.0158 43.0357 17.713 43.0548C18.4391 43.0692 18.742 42.6092 18.7612 41.4544C18.7612 41.4064 18.7612 41.3633 18.7612 41.3154C18.7612 38.2821 18.7612 35.2441 18.7612 32.2109C18.7612 31.8563 18.6987 31.5017 18.665 31.104H16.7851L16.7802 31.0992ZM26.5312 31.6933C26.5745 31.3915 26.637 31.171 26.6418 30.9506C26.6514 28.2384 26.6466 25.5262 26.6418 22.814C26.6418 22.584 26.6274 22.354 26.5937 22.1288C26.5264 21.664 26.2523 21.3765 25.7763 21.3382C25.2426 21.295 24.8868 21.5634 24.7666 22.0761C24.6945 22.3876 24.6897 22.7134 24.6897 23.0345C24.6849 25.6077 24.6801 28.1809 24.6897 30.7541C24.6897 31.056 24.7714 31.3627 24.8147 31.6886H26.5264L26.5312 31.6933ZM43.4367 31.5736C43.4367 29.6904 43.4367 27.9605 43.4367 26.2258C43.4367 24.9416 43.4608 23.6622 43.4175 22.378C43.3935 21.6688 42.9752 21.2806 42.4126 21.3334C41.8116 21.3909 41.5327 21.7694 41.5039 22.3444C41.4942 22.5745 41.4942 22.8045 41.4942 23.0297C41.4942 25.5023 41.4942 27.9749 41.4942 30.4475C41.4942 30.8021 41.5471 31.1567 41.5808 31.5688H43.4367V31.5736ZM41.5039 38.5792C41.5039 39.8155 41.4894 40.9081 41.5087 42.0006C41.5231 42.5804 41.8356 42.9734 42.4415 42.983C43.0425 42.9973 43.3935 42.6236 43.4127 42.0437C43.4416 40.9129 43.4223 39.7772 43.4223 38.5745H41.5039V38.5792ZM24.7185 38.5888C24.7185 39.8012 24.6849 40.9368 24.733 42.0725C24.757 42.6284 25.1032 43.0117 25.7283 42.9877C26.2812 42.9686 26.5889 42.6188 26.6033 42.106C26.637 40.9368 26.613 39.7676 26.613 38.584H24.7185V38.5888ZM35.0898 24.3858C35.0898 23.5616 35.1234 22.8811 35.0801 22.2103C35.0417 21.6448 34.6763 21.2806 34.0993 21.2711C33.5175 21.2567 33.1424 21.6017 33.104 22.1767C33.0559 22.8859 33.0944 23.5999 33.0944 24.3858H35.0898ZM16.7562 24.3139H18.7468C18.7468 23.5951 18.7804 22.9626 18.7372 22.3349C18.6891 21.6496 18.2708 21.2375 17.7178 21.2854C17.1361 21.3334 16.7899 21.6736 16.761 22.2582C16.7322 22.929 16.7562 23.5999 16.7562 24.3139Z" fill="white"/>
</g>
<defs>
<clipPath id="clip0_1639_292">
<rect width="242" height="64" fill="white" transform="translate(0.5)"/>
</clipPath>
</defs>
</svg>

